<?xml version="1.0" encoding="UTF-8" standalone="no"?>
<svg
   width="37"
   height="37"
   viewBox="0 0 37 37"
   fill="none"
   version="1.1"
   id="svg38"
   sodipodi:docname="logo.svg"
   inkscape:version="1.1.1 (3bf5ae0d25, 2021-09-20)"
   xmlns:inkscape="http://www.inkscape.org/namespaces/inkscape"
   xmlns:sodipodi="http://sodipodi.sourceforge.net/DTD/sodipodi-0.dtd"
   xmlns="http://www.w3.org/2000/svg"
   xmlns:svg="http://www.w3.org/2000/svg">
  <defs
     id="defs42" />
  <sodipodi:namedview
     id="namedview40"
     pagecolor="#ffffff"
     bordercolor="#666666"
     borderopacity="1.0"
     inkscape:pageshadow="2"
     inkscape:pageopacity="0.0"
     inkscape:pagecheckerboard="0"
     showgrid="false"
     inkscape:zoom="7.0650888"
     inkscape:cx="84.429229"
     inkscape:cy="18.541876"
     inkscape:window-width="1440"
     inkscape:window-height="890"
     inkscape:window-x="-6"
     inkscape:window-y="-6"
     inkscape:window-maximized="1"
     inkscape:current-layer="svg38"
     width="37px" />
  <path
     fill-rule="evenodd"
     clip-rule="evenodd"
     d="m 10.248358,9.4155581 6.606424,6.6049929 -8.4050031,8.403663 C 5.5139962,19.735969 6.1147467,13.450987 10.248358,9.4155581 Z m 23.866544,1.8562659 c -0.705469,-0.732476 -1.899624,-0.714896 -2.619793,0.004 l -8.410514,8.41017 c -0.707311,0.708224 -0.707311,1.85645 0,2.564492 l 4.194235,4.192765 c -4.467975,4.57644 -11.691688,4.821887 -16.453604,0.736779 L 21.414615,16.590842 c 0.314155,-0.314687 0.314155,-0.825088 0,-1.139759 L 11.010778,5.047698 C 10.726017,4.7640865 10.277751,4.7321456 9.9562471,4.9732807 L 9.2562906,5.4989322 C 8.6647256,5.9445727 8.0988791,6.4347428 7.5789635,6.9554141 4.6192971,9.9146571 2.9897389,13.8493 2.9897389,18.034737 c 0,3.270621 0.9957398,6.388465 2.8420862,9.007522 l -3.5842983,3.583564 c -0.7183301,0.719066 -0.7348658,1.913034 -0.00354,2.618318 0.7109781,0.683794 1.8408318,0.675709 2.5407927,-0.02454 l 3.4685683,-3.468822 c 2.8696442,2.55549 6.5311022,3.952099 10.4056752,3.952099 4.185047,0 8.120245,-1.629927 11.07991,-4.589042 0.521754,-0.52065 1.010442,-1.085579 1.456871,-1.678429 l 0.525415,-0.699126 c 0.24067,-0.320767 0.209433,-0.770503 -0.07531,-1.054162 l -4.71415,-4.713972 7.157574,-7.156454 c 0.69996,-0.699959 0.709141,-1.829756 0.02569,-2.539692 z"
     fill="#0097a9"
     id="path28"
     style="stroke-width:1.83716" />
  <path
     fill-rule="evenodd"
     clip-rule="evenodd"
     d="M 21.148227,9.4686161 25.44718,5.170083 c 0.707309,-0.7084621 0.707309,-1.8567063 0,-2.5648772 -0.709142,-0.7081726 -1.857371,-0.7081726 -2.564675,0 l -4.298952,4.2985303 c -0.709146,0.708465 -0.709146,1.856708 0,2.56488 0.707306,0.7081659 1.855533,0.7081659 2.564674,0 z"
     fill="#0097a9"
     id="path30"
     style="stroke-width:1.83716" />
</svg>
