<?xml version="1.0" encoding="UTF-8" standalone="no"?>
<!-- Created with Inkscape (http://www.inkscape.org/) -->

<svg
   xmlns:dc="http://purl.org/dc/elements/1.1/"
   xmlns:cc="http://creativecommons.org/ns#"
   xmlns:rdf="http://www.w3.org/1999/02/22-rdf-syntax-ns#"
   xmlns:svg="http://www.w3.org/2000/svg"
   xmlns="http://www.w3.org/2000/svg"
   xmlns:sodipodi="http://sodipodi.sourceforge.net/DTD/sodipodi-0.dtd"
   xmlns:inkscape="http://www.inkscape.org/namespaces/inkscape"
   width="400mm"
   height="400mm"
   viewBox="0 0 400 400"
   version="1.1"
   id="svg8"
   inkscape:version="0.92.2 5c3e80d, 2017-08-06"
   sodipodi:docname="power.svg">
  <defs
     id="defs2" />
  <sodipodi:namedview
     id="base"
     pagecolor="#ffffff"
     bordercolor="#666666"
     borderopacity="1.0"
     inkscape:pageopacity="0.0"
     inkscape:pageshadow="2"
     inkscape:zoom="0.7"
     inkscape:cx="406.4217"
     inkscape:cy="736.16274"
     inkscape:document-units="mm"
     inkscape:current-layer="layer1"
     showgrid="false"
     inkscape:pagecheckerboard="true"
     inkscape:window-width="2560"
     inkscape:window-height="1391"
     inkscape:window-x="0"
     inkscape:window-y="1"
     inkscape:window-maximized="1" />
  <metadata
     id="metadata5">
    <rdf:RDF>
      <cc:Work
         rdf:about="">
        <dc:format>image/svg+xml</dc:format>
        <dc:type
           rdf:resource="http://purl.org/dc/dcmitype/StillImage" />
        <dc:title></dc:title>
      </cc:Work>
    </rdf:RDF>
  </metadata>
  <g
     inkscape:label="Layer 1"
     inkscape:groupmode="layer"
     id="layer1"
     transform="translate(0,103)">
    <path
       style="fill:#000000;stroke-width:0.1918429"
       d="M 171.41999,292.96074 C 80.549561,279.53674 10.528711,205.25717 2.7894207,114.07387 -5.4190755,17.362508 57.719289,-70.947202 151.93569,-94.532418 c 8.93096,-2.235682 25.23621,-4.986827 29.68767,-5.009097 0.31734,-0.002 0.33574,0.97061 0.33574,17.743789 v 17.745468 h -0.5816 c -6.00105,0 -24.90694,4.791164 -37.21145,9.430197 C 87.529523,-33.269017 49.636804,10.936571 39.250505,67.772228 25.743461,141.6852 63.186721,212.65108 133.67473,246.73364 c 16.13388,7.80111 36.67289,13.78874 47.37311,13.81044 l 0.91126,0.002 v 16.49848 16.49848 l -3.40521,-0.0159 c -2.69488,-0.0113 -4.18303,-0.13051 -7.1339,-0.56646 z m 46.60556,-15.88808 v -16.47023 l 2.06232,-0.1321 c 36.20807,-2.31799 85.54312,-31.68247 111.22905,-66.2041 43.04864,-57.85691 42.8103,-137.371857 -0.58423,-194.9144848 -21.52753,-28.5462692 -57.63944,-51.2985272 -96.04513,-60.5131262 -5.56706,-1.33568 -14.17549,-2.886798 -16.03851,-2.889902 l -0.6235,-0.001 v -17.745469 -17.745463 l 0.43165,0.002 c 0.23742,9.3e-4 2.24456,0.21254 4.46035,0.47005 106.77579,12.414096 183.91674,107.4065348 174.18047,214.488245 -7.39002,81.27718 -64.67393,149.92878 -143.74704,172.27282 -11.76381,3.32418 -25.65911,5.85331 -32.15852,5.85331 h -3.16691 V 277.07298 Z M 135.6642,226.36754 c -0.59966,-0.30324 -1.08385,-0.65785 -1.07596,-0.78807 0.007,-0.13028 10.43374,-24.32261 23.16858,-53.7609 l 23.15423,-53.52417 -26.14215,-0.0487 c -17.63159,-0.0328 -26.14214,-0.11238 -26.14214,-0.24455 0,-0.10786 5.08502,-13.33743 11.30005,-29.399227 6.21503,-16.061827 13.48248,-34.857892 16.14992,-41.76904 2.66742,-6.911126 9.43994,-25.212938 15.05001,-40.6706873 l 10.20016,-28.1049927 48.1809,-0.04826 c 26.56881,-0.02674 48.18091,0.02515 48.18091,0.115558 0,0.09018 -14.41969,20.097168 -32.04372,44.459978 l -32.04371,44.295996 30.60489,0.04849 c 16.83267,0.02674 30.60401,0.113066 30.60292,0.191918 -0.002,0.113293 -50.83413,58.954617 -132.64406,153.542367 l -5.41052,6.25557 z"
       id="path880"
       inkscape:connector-curvature="0" />
  </g>
</svg>
