<?xml version="1.0" encoding="UTF-8" standalone="no"?>
<svg
   xmlns:dc="http://purl.org/dc/elements/1.1/"
   xmlns:cc="http://creativecommons.org/ns#"
   xmlns:rdf="http://www.w3.org/1999/02/22-rdf-syntax-ns#"
   xmlns:svg="http://www.w3.org/2000/svg"
   xmlns="http://www.w3.org/2000/svg"
   xmlns:sodipodi="http://sodipodi.sourceforge.net/DTD/sodipodi-0.dtd"
   xmlns:inkscape="http://www.inkscape.org/namespaces/inkscape"
   width="256px"
   height="256px"
   viewBox="0 0 256 256"
   version="1.1"
   id="svg11"
   sodipodi:docname="type3.svg"
   inkscape:version="0.92.2 5c3e80d, 2017-08-06">
  <metadata
     id="metadata15">
    <rdf:RDF>
      <cc:Work
         rdf:about="">
        <dc:format>image/svg+xml</dc:format>
        <dc:type
           rdf:resource="http://purl.org/dc/dcmitype/StillImage" />
        <dc:title>connector-type.type3.le-grand</dc:title>
      </cc:Work>
    </rdf:RDF>
  </metadata>
  <sodipodi:namedview
     pagecolor="#ffffff"
     bordercolor="#666666"
     borderopacity="1"
     objecttolerance="10"
     gridtolerance="10"
     guidetolerance="10"
     inkscape:pageopacity="0"
     inkscape:pageshadow="2"
     inkscape:window-width="2560"
     inkscape:window-height="1391"
     id="namedview13"
     showgrid="false"
     inkscape:pagecheckerboard="true"
     inkscape:zoom="3.6875"
     inkscape:cx="93.142367"
     inkscape:cy="153.31543"
     inkscape:window-x="0"
     inkscape:window-y="1"
     inkscape:window-maximized="1"
     inkscape:current-layer="svg11" />
  <!-- Generator: Sketch 41.2 (35397) - http://www.bohemiancoding.com/sketch -->
  <title
     id="title2">connector-type.type3.le-grand</title>
  <desc
     id="desc4">Created with Sketch.</desc>
  <defs
     id="defs6" />
  <g
     id="Page-1"
     stroke="none"
     stroke-width="1"
     fill="none"
     fill-rule="evenodd"
     style="fill:#000000">
    <g
       id="connector-type.type3.le-grand"
       fill="#FFFFFF"
       style="fill:#000000">
      <path
         d="M 139.75145,0 H 116.10496 C 70.947587,0 34.000258,37.113343 34.000258,82.474478 V 173.52552 C 34.000258,218.88666 70.947587,256 116.10496,256 h 23.64649 c 45.15823,0 82.10556,-37.11334 82.10556,-82.47448 V 82.474478 C 221.85701,37.113343 184.90968,0 139.75145,0 M 110.53371,243.9038 C 93.94011,242.58934 78.466121,235.41671 66.478754,223.37471 53.159023,209.99513 45.823506,192.29145 45.823506,173.52552 V 82.474478 c 0,-18.766792 7.335517,-36.470467 20.655248,-49.850047 C 79.798486,19.24485 97.422969,11.876373 116.10496,11.876373 h 4.53257 V 25.81949 c 0,4.010094 3.28075,7.290846 7.29085,7.290846 4.01009,0 7.29084,-3.280752 7.29084,-7.290846 V 11.876373 h 4.53223 c 18.68199,0 36.30647,7.368477 49.6262,20.748058 13.32059,13.37958 20.65611,31.083255 20.65611,49.850047 v 91.051042 c 0,18.76593 -7.33552,36.46961 -20.65611,49.84919 -11.98745,12.04208 -27.46156,19.21473 -44.05529,20.52912 0.008,-0.14557 0.0119,-0.29213 0.0119,-0.43958 0,-4.42588 -3.62008,-8.04682 -8.04596,-8.04682 h -18.71978 c -4.42588,0 -8.04682,3.62094 -8.04682,8.04682 0,0.14744 0.004,0.29399 0.012,0.43955 z m 17.39467,-54.76026 c -7.89047,0 -14.28618,6.39656 -14.28618,14.28617 0,7.89047 6.39571,14.28618 14.28618,14.28618 7.89047,0 14.28617,-6.39571 14.28617,-14.28618 0,-7.88961 -6.3957,-14.28617 -14.28617,-14.28617 z m 0,5.91119 c 4.61745,0 8.37498,3.75753 8.37498,8.37498 0,4.61831 -3.75753,8.37498 -8.37498,8.37498 -4.61745,0 -8.37498,-3.75667 -8.37498,-8.37498 0,-4.61745 3.75753,-8.37498 8.37498,-8.37498 z M 85.970405,50.845036 c -6.438657,0 -11.659167,5.219651 -11.659167,11.659168 0,6.438658 5.22051,11.658309 11.659167,11.658309 6.438658,0 11.659168,-5.219651 11.659168,-11.658309 0,-6.439517 -5.22051,-11.659168 -11.659168,-11.659168 z m 0,5.911195 c 3.169074,0 5.747114,2.578899 5.747114,5.747973 0,3.169074 -2.57804,5.747114 -5.747114,5.747114 -3.169073,0 -5.747114,-2.57804 -5.747114,-5.747114 0,-3.169074 2.578041,-5.747973 5.747114,-5.747973 z m -1.948692,33.499318 c -7.89047,0 -14.286175,6.396564 -14.286175,14.286171 0,7.89047 6.395705,14.28618 14.286175,14.28618 7.89047,0 14.286174,-6.39571 14.286174,-14.28618 0,-7.889607 -6.395704,-14.286171 -14.286174,-14.286171 z m 0,5.911195 c 4.617449,0 8.37498,3.75753 8.37498,8.374976 0,4.61831 -3.757531,8.37498 -8.37498,8.37498 -4.61745,0 -8.37498,-3.75667 -8.37498,-8.37498 0,-4.617446 3.75753,-8.374976 8.37498,-8.374976 z m 0,48.433226 c -7.89047,0 -14.286175,6.39656 -14.286175,14.28617 0,7.89047 6.395705,14.28618 14.286175,14.28618 7.89047,0 14.286174,-6.39571 14.286174,-14.28618 0,-7.88961 -6.395704,-14.28617 -14.286174,-14.28617 z m 0,5.91119 c 4.617449,0 8.37498,3.75753 8.37498,8.37498 0,4.61831 -3.757531,8.37498 -8.37498,8.37498 -4.61745,0 -8.37498,-3.75667 -8.37498,-8.37498 0,-4.61745 3.75753,-8.37498 8.37498,-8.37498 z M 171.83504,90.255549 c -7.89047,0 -14.28618,6.396564 -14.28618,14.286171 0,7.89047 6.39571,14.28618 14.28618,14.28618 7.89047,0 14.28617,-6.39571 14.28617,-14.28618 0,-7.889607 -6.3957,-14.286171 -14.28617,-14.286171 z m 0,5.911195 c 4.61745,0 8.37498,3.75753 8.37498,8.374976 0,4.61831 -3.75753,8.37498 -8.37498,8.37498 -4.61745,0 -8.37498,-3.75667 -8.37498,-8.37498 0,-4.617446 3.75753,-8.374976 8.37498,-8.374976 z m 0,48.433226 c -7.89047,0 -14.28618,6.39656 -14.28618,14.28617 0,7.89047 6.39571,14.28618 14.28618,14.28618 7.89047,0 14.28617,-6.39571 14.28617,-14.28618 0,-7.88961 -6.3957,-14.28617 -14.28617,-14.28617 z m 0,5.91119 c 4.61745,0 8.37498,3.75753 8.37498,8.37498 0,4.61831 -3.75753,8.37498 -8.37498,8.37498 -4.61745,0 -8.37498,-3.75667 -8.37498,-8.37498 0,-4.61745 3.75753,-8.37498 8.37498,-8.37498 z m -2.62735,-99.666124 c -6.43866,0 -11.65917,5.219651 -11.65917,11.659168 0,6.438658 5.22051,11.658309 11.65917,11.658309 6.43866,0 11.65917,-5.219651 11.65917,-11.658309 0,-6.439517 -5.22051,-11.659168 -11.65917,-11.659168 z m 0,5.911195 c 3.16907,0 5.74711,2.578899 5.74711,5.747973 0,3.169074 -2.57804,5.747114 -5.74711,5.747114 -3.16908,0 -5.74712,-2.57804 -5.74712,-5.747114 0,-3.169074 2.57804,-5.747973 5.74712,-5.747973 z"
         id="Combined-Shape"
         style="fill:#000000"
         inkscape:connector-curvature="0"
         sodipodi:nodetypes="cssssssscccsssscssscscssccsssscssssssssssssssssssssssssssssssssssssssssssssssssssssssssssssssssssssss" />
    </g>
  </g>
</svg>
