<?xml version="1.0" encoding="UTF-8" standalone="no"?>
<svg
   xmlns:dc="http://purl.org/dc/elements/1.1/"
   xmlns:cc="http://creativecommons.org/ns#"
   xmlns:rdf="http://www.w3.org/1999/02/22-rdf-syntax-ns#"
   xmlns:svg="http://www.w3.org/2000/svg"
   xmlns="http://www.w3.org/2000/svg"
   xmlns:sodipodi="http://sodipodi.sourceforge.net/DTD/sodipodi-0.dtd"
   xmlns:inkscape="http://www.inkscape.org/namespaces/inkscape"
   width="400mm"
   height="400mm"
   version="1.1"
   id="svg12"
   sodipodi:docname="lolo.svg"
   inkscape:version="0.92.2 5c3e80d, 2017-08-06">
  <metadata
     id="metadata18">
    <rdf:RDF>
      <cc:Work
         rdf:about="">
        <dc:format>image/svg+xml</dc:format>
        <dc:type
           rdf:resource="http://purl.org/dc/dcmitype/StillImage" />
        <dc:title></dc:title>
      </cc:Work>
    </rdf:RDF>
  </metadata>
  <defs
     id="defs16" />
  <sodipodi:namedview
     pagecolor="#ffffff"
     bordercolor="#666666"
     borderopacity="1"
     objecttolerance="10"
     gridtolerance="10"
     guidetolerance="10"
     inkscape:pageopacity="0"
     inkscape:pageshadow="2"
     inkscape:window-width="2009"
     inkscape:window-height="974"
     id="namedview14"
     showgrid="false"
     inkscape:pagecheckerboard="true"
     units="mm"
     inkscape:zoom="0.4627451"
     inkscape:cx="946.52542"
     inkscape:cy="773.64407"
     inkscape:window-x="331"
     inkscape:window-y="275"
     inkscape:window-maximized="0"
     inkscape:current-layer="svg12" />
  <g
     id="g5"
     transform="translate(0,1001.811)">
    <title
       id="title2">background</title>
    <rect
       id="canvas_background"
       height="512"
       width="512"
       y="-1"
       x="-1"
       style="fill:none" />
  </g>
  <path
     style="fill:none;fill-rule:evenodd;stroke:#000000;stroke-width:56.69291306;stroke-miterlimit:4;stroke-dasharray:none;stroke-opacity:1"
     inkscape:connector-curvature="0"
     id="path1"
     d="M 666.67511,46.9914 C 533.40313,60.721815 432.27203,157.40303 420.57618,282.25547 c -2.17096,23.17576 -0.84395,944.52583 1.38099,958.17383 15.70814,96.4056 83.59016,175.6936 178.22545,208.1726 14.67097,5.0353 29.37036,8.5048 49.5909,11.7044 l 18.33374,2.9012 83.96239,-0.037 c 99.95186,-0.048 115.85322,-1.219 148.18164,-10.9286 102.02901,-30.6406 171.16701,-108.3913 188.77051,-212.273 l 3.2933,-19.4306 0.011,-466.09815 0.014,-466.09816 -2.8529,-16.8334 C 1068.2755,146.29254 968.38336,55.13531 843.42011,46.962985 824.56352,45.729748 678.69491,45.75248 666.67511,46.9914"
     sodipodi:nodetypes="ccccccccccccccc" />
  <circle
     style="fill:#000000;stroke:none"
     id="path4518"
     cx="755.05054"
     cy="452.08646"
     r="160.99576" />
</svg>
