<?xml version="1.0" encoding="UTF-8" standalone="no"?>
<svg
   xmlns:dc="http://purl.org/dc/elements/1.1/"
   xmlns:cc="http://creativecommons.org/ns#"
   xmlns:rdf="http://www.w3.org/1999/02/22-rdf-syntax-ns#"
   xmlns:svg="http://www.w3.org/2000/svg"
   xmlns="http://www.w3.org/2000/svg"
   xmlns:sodipodi="http://sodipodi.sourceforge.net/DTD/sodipodi-0.dtd"
   xmlns:inkscape="http://www.inkscape.org/namespaces/inkscape"
   width="193.03018mm"
   height="389.9566mm"
   version="1.1"
   id="svg12"
   sodipodi:docname="lolo.svg"
   inkscape:version="0.92.4 (5da689c313, 2019-01-14)">
  <metadata
     id="metadata18">
    <rdf:RDF>
      <cc:Work
         rdf:about="">
        <dc:format>image/svg+xml</dc:format>
        <dc:type
           rdf:resource="http://purl.org/dc/dcmitype/StillImage" />
        <dc:title />
      </cc:Work>
    </rdf:RDF>
  </metadata>
  <defs
     id="defs16" />
  <sodipodi:namedview
     pagecolor="#ffffff"
     bordercolor="#666666"
     borderopacity="1"
     objecttolerance="10"
     gridtolerance="10"
     guidetolerance="10"
     inkscape:pageopacity="0"
     inkscape:pageshadow="2"
     inkscape:window-width="2736"
     inkscape:window-height="1699"
     id="namedview14"
     showgrid="false"
     inkscape:pagecheckerboard="true"
     units="mm"
     inkscape:zoom="0.4627451"
     inkscape:cx="-534.83137"
     inkscape:cy="753.38799"
     inkscape:window-x="-13"
     inkscape:window-y="-13"
     inkscape:window-maximized="1"
     inkscape:current-layer="svg12" />
  <path
     style="fill:none;fill-rule:evenodd;stroke:#000000;stroke-width:56.69291306;stroke-miterlimit:4;stroke-dasharray:none;stroke-opacity:1"
     inkscape:connector-curvature="0"
     id="path1"
     d="M 275.55136,29.288163 C 142.27938,43.018578 41.148281,139.69979 29.452431,264.55223 c -2.17096,23.17576 -0.84395,944.52587 1.38099,958.17387 15.70814,96.4056 83.590159,175.6936 178.225449,208.1726 14.67097,5.0353 29.37036,8.5048 49.5909,11.7044 l 18.33374,2.9012 83.96239,-0.037 c 99.95186,-0.048 115.85322,-1.219 148.18164,-10.9286 102.02901,-30.6406 171.16701,-108.3913 188.77051,-212.273 l 3.2933,-19.4306 0.011,-466.09819 0.014,-466.09816 -2.8529,-16.8334 C 677.15175,128.5893 577.25961,37.432073 452.29636,29.259748 c -18.85659,-1.233237 -164.7252,-1.210505 -176.745,0.02842"
     sodipodi:nodetypes="ccccccccccccccc" />
  <circle
     style="fill:#000000;stroke:none"
     id="path4518"
     cx="363.92679"
     cy="434.38321"
     r="0" />
  <ellipse
     style="fill:#000000"
     id="path3844"
     cx="372.77542"
     cy="428.99997"
     rx="193.41101"
     ry="189.08899" />
  <ellipse
     style="fill:#000000;stroke-width:0.22316021"
     id="path3844-6"
     cx="537.0127"
     cy="194.52966"
     rx="43.220337"
     ry="42.139839" />
</svg>
