<?xml version="1.0" encoding="UTF-8" standalone="no"?>
<!-- Created with Inkscape (http://www.inkscape.org/) -->

<svg
   width="210mm"
   height="297mm"
   viewBox="0 0 210 297"
   version="1.1"
   id="svg266"
   inkscape:version="1.1.1 (3bf5ae0d25, 2021-09-20)"
   sodipodi:docname="tekening.svg"
   xmlns:inkscape="http://www.inkscape.org/namespaces/inkscape"
   xmlns:sodipodi="http://sodipodi.sourceforge.net/DTD/sodipodi-0.dtd"
   xmlns="http://www.w3.org/2000/svg"
   xmlns:svg="http://www.w3.org/2000/svg">
  <sodipodi:namedview
     id="namedview268"
     pagecolor="#ffffff"
     bordercolor="#666666"
     borderopacity="1.0"
     inkscape:pageshadow="2"
     inkscape:pageopacity="0.0"
     inkscape:pagecheckerboard="0"
     inkscape:document-units="mm"
     showgrid="false"
     inkscape:zoom="0.58974467"
     inkscape:cx="397.62971"
     inkscape:cy="554.47725"
     inkscape:window-width="1440"
     inkscape:window-height="914"
     inkscape:window-x="-6"
     inkscape:window-y="-6"
     inkscape:window-maximized="1"
     inkscape:current-layer="layer1" />
  <defs
     id="defs263" />
  <g
     inkscape:label="Laag 1"
     inkscape:groupmode="layer"
     id="layer1">
    <path
       style="fill:none;fill-rule:evenodd;stroke:#000000;stroke-width:11.0203;stroke-miterlimit:4;stroke-dasharray:none;stroke-opacity:1"
       inkscape:connector-curvature="0"
       id="path1"
       d="m 88.085511,13.075232 c -25.90611,2.668988 -45.564508,21.46239 -47.838001,45.731861 -0.422007,4.50503 -0.164054,183.601917 0.268439,186.254897 3.053436,18.73981 16.248693,34.15224 34.644399,40.46568 2.851825,0.9788 5.709166,1.65319 9.639741,2.27515 l 3.56381,0.56396 16.321051,-0.007 c 19.42917,-0.009 22.52017,-0.23697 28.80433,-2.12439 19.83293,-5.95609 33.27235,-21.06966 36.6942,-41.26272 l 0.64018,-3.77704 0.003,-90.60261 0.003,-90.60262 -0.55457,-3.272164 C 166.15181,32.378195 146.73426,14.658575 122.44325,13.069994 118.7778,12.830273 90.423088,12.834689 88.086618,13.075594"
       sodipodi:nodetypes="ccccccccccccccc">
      <circle
         style="fill:#ffffff;stroke-width:0.906675"
         id="path4518"
         cx="244.66383"
         cy="448.17657"
         r="0" />
    </path>
    <ellipse
       style="fill:#000000;stroke-width:0.194385"
       id="path3844"
       cx="106.98444"
       cy="90.773308"
       rx="37.596252"
       ry="36.756111" />
    <ellipse
       style="fill:#000000;stroke-width:0.0433791"
       id="path3844-6"
       cx="138.90973"
       cy="45.195732"
       rx="8.4013968"
       ry="8.1913633" />
  </g>
</svg>
