<?xml version="1.0" encoding="UTF-8" standalone="no"?>
<svg
   xmlns:dc="http://purl.org/dc/elements/1.1/"
   xmlns:cc="http://creativecommons.org/ns#"
   xmlns:rdf="http://www.w3.org/1999/02/22-rdf-syntax-ns#"
   xmlns:svg="http://www.w3.org/2000/svg"
   xmlns="http://www.w3.org/2000/svg"
   xmlns:sodipodi="http://sodipodi.sourceforge.net/DTD/sodipodi-0.dtd"
   xmlns:inkscape="http://www.inkscape.org/namespaces/inkscape"
   width="256px"
   height="256px"
   viewBox="0 0 256 256"
   version="1.1"
   id="svg13"
   sodipodi:docname="domestic.svg"
   inkscape:version="0.92.2 5c3e80d, 2017-08-06">
  <metadata
     id="metadata17">
    <rdf:RDF>
      <cc:Work
         rdf:about="">
        <dc:format>image/svg+xml</dc:format>
        <dc:type
           rdf:resource="http://purl.org/dc/dcmitype/StillImage" />
        <dc:title>connector-type.domestic.schuko</dc:title>
      </cc:Work>
    </rdf:RDF>
  </metadata>
  <sodipodi:namedview
     pagecolor="#ffffff"
     bordercolor="#666666"
     borderopacity="1"
     objecttolerance="10"
     gridtolerance="10"
     guidetolerance="10"
     inkscape:pageopacity="0"
     inkscape:pageshadow="2"
     inkscape:window-width="2560"
     inkscape:window-height="1391"
     id="namedview15"
     showgrid="false"
     inkscape:pagecheckerboard="true"
     inkscape:zoom="2.6074563"
     inkscape:cx="129.40122"
     inkscape:cy="78.538302"
     inkscape:window-x="0"
     inkscape:window-y="1"
     inkscape:window-maximized="1"
     inkscape:current-layer="svg13" />
  <!-- Generator: Sketch 41.2 (35397) - http://www.bohemiancoding.com/sketch -->
  <title
     id="title2">connector-type.domestic.schuko</title>
  <desc
     id="desc4">Created with Sketch.</desc>
  <defs
     id="defs6" />
  <path
     style="fill:#000000;fill-rule:evenodd;stroke:none;stroke-width:1"
     d="M 127.79492 0 C 90.616432 0 57.08751 15.373432 33.396484 40.013672 C 28.613023 44.988893 24.230908 50.342538 20.300781 56.023438 L 20.300781 82.734375 L 20.300781 102.52734 L 0 102.52734 L 0 153.27344 L 20.300781 153.27344 L 20.300781 173.26562 L 20.300781 199.97656 C 24.230908 205.65746 28.613023 211.01111 33.396484 215.98633 C 57.08751 240.62657 90.616432 256 127.79492 256 C 164.97244 256 198.50137 240.62657 222.19336 215.98633 C 226.97682 211.01111 231.35893 205.65746 235.28906 199.97656 L 235.28906 173.26562 L 235.28906 153.27344 L 255.58984 153.27344 L 255.58984 102.52734 L 235.28906 102.52734 L 235.28906 82.734375 L 235.28906 56.023438 C 231.35893 50.342538 226.97682 44.988893 222.19336 40.013672 C 198.50137 15.373432 164.97244 -4.7369516e-15 127.79492 0 z M 127.79492 13.195312 C 144.15495 13.195312 159.97209 16.452983 174.80859 22.876953 C 189.13308 29.078481 201.87594 37.922044 212.68164 49.160156 C 216.04224 52.655947 219.19721 56.378644 222.09375 60.265625 L 222.09375 82.734375 L 222.09375 102.52734 L 222.09375 112.36914 L 235.28906 112.36914 L 245.74805 112.36914 L 245.74805 143.43359 L 235.28906 143.43359 L 222.09375 143.43359 L 222.09375 153.27344 L 222.09375 173.26562 L 222.09375 195.73438 C 219.19721 199.62231 216.04224 203.34501 212.68164 206.83984 C 201.87594 218.07795 189.13308 226.92057 174.80859 233.12305 C 159.97209 239.54607 144.15495 242.80469 127.79492 242.80469 C 111.43489 242.80469 95.617744 239.54607 80.78125 233.12305 C 66.455797 226.92057 53.713895 218.07795 42.908203 206.83984 C 39.547603 203.34501 36.391675 199.62231 33.496094 195.73438 L 33.496094 173.26562 L 33.496094 153.27344 L 33.496094 143.43359 L 20.300781 143.43359 L 9.8417969 143.43359 L 9.8417969 112.36914 L 20.300781 112.36914 L 33.496094 112.36914 L 33.496094 102.52734 L 33.496094 82.734375 L 33.496094 60.265625 C 36.391675 56.377685 39.547603 52.655947 42.908203 49.160156 C 53.713895 37.922044 66.455797 29.078481 80.78125 22.876953 C 95.617744 16.452983 111.43489 13.195312 127.79492 13.195312 z M 82.779297 111 C 73.512481 111 66 118.51248 66 127.7793 C 66 137.04611 73.512481 144.55859 82.779297 144.55859 C 92.046114 144.55859 99.558594 137.04611 99.558594 127.7793 C 99.558594 118.51248 92.046114 111 82.779297 111 z M 172.7793 111 C 163.51248 111 156 118.51248 156 127.7793 C 156 137.04611 163.51248 144.55859 172.7793 144.55859 C 182.04611 144.55859 189.55859 137.04611 189.55859 127.7793 C 189.55859 118.51248 182.04611 111 172.7793 111 z "
     id="Combined-Shape" />
</svg>
