<?xml version="1.0" encoding="UTF-8" standalone="no"?>
<svg
   xmlns:dc="http://purl.org/dc/elements/1.1/"
   xmlns:cc="http://creativecommons.org/ns#"
   xmlns:rdf="http://www.w3.org/1999/02/22-rdf-syntax-ns#"
   xmlns:svg="http://www.w3.org/2000/svg"
   xmlns="http://www.w3.org/2000/svg"
   xmlns:sodipodi="http://sodipodi.sourceforge.net/DTD/sodipodi-0.dtd"
   xmlns:inkscape="http://www.inkscape.org/namespaces/inkscape"
   width="256px"
   height="256px"
   viewBox="0 0 256 256"
   version="1.1"
   id="svg11"
   sodipodi:docname="tepcochademo.svg"
   inkscape:version="0.92.2 5c3e80d, 2017-08-06">
  <metadata
     id="metadata15">
    <rdf:RDF>
      <cc:Work
         rdf:about="">
        <dc:format>image/svg+xml</dc:format>
        <dc:type
           rdf:resource="http://purl.org/dc/dcmitype/StillImage" />
        <dc:title>connector-type.type4.CHAdeMO</dc:title>
      </cc:Work>
    </rdf:RDF>
  </metadata>
  <sodipodi:namedview
     pagecolor="#ffffff"
     bordercolor="#666666"
     borderopacity="1"
     objecttolerance="10"
     gridtolerance="10"
     guidetolerance="10"
     inkscape:pageopacity="0"
     inkscape:pageshadow="2"
     inkscape:window-width="2510"
     inkscape:window-height="1339"
     id="namedview13"
     showgrid="false"
     inkscape:pagecheckerboard="true"
     inkscape:zoom="2.6074563"
     inkscape:cx="78.440106"
     inkscape:cy="130.68756"
     inkscape:window-x="0"
     inkscape:window-y="0"
     inkscape:window-maximized="0"
     inkscape:current-layer="svg11" />
  <!-- Generator: Sketch 41.2 (35397) - http://www.bohemiancoding.com/sketch -->
  <title
     id="title2">connector-type.type4.CHAdeMO</title>
  <desc
     id="desc4">Created with Sketch.</desc>
  <defs
     id="defs6" />
  <g
     id="Page-1"
     stroke="none"
     stroke-width="1"
     fill="none"
     fill-rule="evenodd">
    <g
       id="connector-type.type4.CHAdeMO"
       fill="#FFFFFF">
      <path
         d="M 128,0 C 57.307683,0 0,57.307683 0,128 0,198.69232 57.307683,256 128,256 198.69232,256 256,198.69232 256,128 256,57.307683 198.69232,0 128,0 m -0.005,12.994689 c 30.71733,0 59.59644,11.962153 81.31714,33.682854 21.72071,21.720701 33.68286,50.599811 33.68286,81.317147 0,30.71828 -11.96215,59.59739 -33.68286,81.31714 -21.7207,21.72071 -50.59981,33.68286 -81.31714,33.68286 -30.717336,0 -59.596446,-11.96215 -81.317147,-33.68286 -21.720701,-21.71975 -33.682854,-50.59886 -33.682854,-81.31714 0,-30.717336 11.962153,-59.596446 33.682854,-81.317147 C 68.398244,24.956842 97.277354,12.994689 127.99469,12.994689 Z M 65,95.823529 c -17.673412,0 -32,14.326591 -32,32.000001 0,17.67341 14.326588,32 32,32 17.673412,0 32,-14.32659 32,-32 C 97,110.15012 82.673412,95.823529 65,95.823529 Z m 0,12.953411 c 10.502588,0 19.046588,8.544 19.046588,19.04659 0,10.50259 -8.544,19.04659 -19.046588,19.04659 -10.502588,0 -19.046588,-8.544 -19.046588,-19.04659 0,-10.50259 8.544,-19.04659 19.046588,-19.04659 z M 190.64706,95.823529 c -17.67341,0 -32,14.326591 -32,32.000001 0,17.67341 14.32659,32 32,32 17.67341,0 32,-14.32659 32,-32 0,-17.67341 -14.32659,-32.000001 -32,-32.000001 z m 0,12.953411 c 10.50259,0 19.04659,8.544 19.04659,19.04659 0,10.50259 -8.544,19.04659 -19.04659,19.04659 -10.50259,0 -19.04659,-8.544 -19.04659,-19.04659 0,-10.50259 8.544,-19.04659 19.04659,-19.04659 z m -45.25506,102.82059 -14.266,-19.304 14.346,-20.175 c 5.442,4.832 8.881,11.873 8.881,19.705 0,7.871 -3.473,14.941 -8.961,19.774 z m -30.271,3.205 12.347,-17.364 13.002,17.595 c -3.715,2.003 -7.961,3.143 -12.47,3.143 -4.675,0 -9.067,-1.229 -12.879,-3.374 z m -13.474,-22.979 c 0,-7.317 3.001,-13.946 7.833,-18.726 l 14.236,19.264 -13.46,18.928 c -5.286,-4.823 -8.609,-11.763 -8.609,-19.466 z m 38.919,-23.159 -13.192,18.552 -13.176,-17.83 c 4.017,-2.48 8.744,-3.916 13.802,-3.916 4.547,0 8.829,1.158 12.566,3.194 z M 128,159.82353 c -17.673,0 -32,14.327 -32,32 0,17.673 14.327,32.001 32,32.001 17.674,0 32,-14.328 32,-32.001 0,-17.673 -14.326,-32 -32,-32 z M 145.392,84.774 131.126,65.47 145.472,45.295 c 5.442,4.832 8.881,11.873 8.881,19.705 0,7.871 -3.473,14.941 -8.961,19.774 z m -30.271,3.205 12.347,-17.364 13.002,17.595 c -3.715,2.003 -7.961,3.143 -12.47,3.143 -4.675,0 -9.067,-1.229 -12.879,-3.374 z M 101.647,65 c 0,-7.317 3.001,-13.946 7.833,-18.726 l 14.236,19.264 -13.46,18.928 C 104.97,79.643 101.647,72.703 101.647,65 Z m 38.919,-23.159 -13.192,18.552 -13.176,-17.83 c 4.017,-2.48 8.744,-3.916 13.802,-3.916 4.547,0 8.829,1.158 12.566,3.194 z M 128,33 c -17.673,0 -32,14.327 -32,32 0,17.673 14.327,32.001 32,32.001 17.674,0 32,-14.328 32,-32.001 0,-17.673 -14.326,-32 -32,-32 z"
         id="Combined-Shape"
         inkscape:connector-curvature="0"
         sodipodi:nodetypes="cssscssscscssssssssssssssssssssssscccsccccscscccscccscssssscccsccccscscccscccscsssss"
         style="fill:#000000" />
    </g>
  </g>
</svg>
