<?xml version="1.0" encoding="UTF-8" standalone="no"?>
<svg
   xmlns:dc="http://purl.org/dc/elements/1.1/"
   xmlns:cc="http://creativecommons.org/ns#"
   xmlns:rdf="http://www.w3.org/1999/02/22-rdf-syntax-ns#"
   xmlns:svg="http://www.w3.org/2000/svg"
   xmlns="http://www.w3.org/2000/svg"
   xmlns:sodipodi="http://sodipodi.sourceforge.net/DTD/sodipodi-0.dtd"
   xmlns:inkscape="http://www.inkscape.org/namespaces/inkscape"
   width="256px"
   height="256px"
   viewBox="0 0 256 256"
   version="1.1"
   id="svg11"
   sodipodi:docname="type2combo.svg"
   inkscape:version="0.92.2 5c3e80d, 2017-08-06">
  <metadata
     id="metadata15">
    <rdf:RDF>
      <cc:Work
         rdf:about="">
        <dc:format>image/svg+xml</dc:format>
        <dc:type
           rdf:resource="http://purl.org/dc/dcmitype/StillImage" />
        <dc:title>connector-type.type3.combo</dc:title>
      </cc:Work>
    </rdf:RDF>
  </metadata>
  <sodipodi:namedview
     pagecolor="#ffffff"
     bordercolor="#666666"
     borderopacity="1"
     objecttolerance="10"
     gridtolerance="10"
     guidetolerance="10"
     inkscape:pageopacity="0"
     inkscape:pageshadow="2"
     inkscape:window-width="2560"
     inkscape:window-height="1391"
     id="namedview13"
     showgrid="false"
     inkscape:pagecheckerboard="true"
     inkscape:zoom="3.6875"
     inkscape:cx="199.93201"
     inkscape:cy="140.17292"
     inkscape:window-x="0"
     inkscape:window-y="1"
     inkscape:window-maximized="1"
     inkscape:current-layer="svg11" />
  <!-- Generator: Sketch 41.2 (35397) - http://www.bohemiancoding.com/sketch -->
  <title
     id="title2">connector-type.type3.combo</title>
  <desc
     id="desc4">Created with Sketch.</desc>
  <defs
     id="defs6" />
  <g
     id="Page-1"
     stroke="none"
     stroke-width="1"
     fill="none"
     fill-rule="evenodd"
     style="fill:#000000">
    <g
       id="connector-type.type3.combo"
       fill="#FFFFFF"
       style="fill:#000000">
      <path
         d="m 79.816889,242.17017 h 98.427601 c 16.10683,0 29.21115,-13.10432 29.21115,-29.21115 V 189.0093 c 0,-16.10683 -13.10432,-29.21115 -29.21115,-29.21115 h -2.86383 c 0.39853,-0.23027 0.79522,-0.46337 1.19006,-0.69928 l -3e-5,-1e-4 c -0.39495,0.23594 -0.79178,0.46908 -1.19044,0.69938 l -3.89878,-13.82963 c 22.43776,-14.30411 37.36288,-39.39334 37.36288,-67.918178 0,-26.199598 -12.58581,-49.509231 -32.02374,-64.220315 h 20.5503 c 15.68881,16.853436 25.30327,39.433544 25.30327,64.220315 0,27.582938 -11.90119,52.435708 -30.83533,69.700928 0.34606,0.10322 0.69035,0.21065 1.03282,0.32223 17.24601,5.61938 29.80251,21.87885 29.80251,40.9358 v 23.94972 C 222.67418,236.63141 203.30559,256 179.6322,256 H 78.429183 c -23.67339,0 -43.04198,-19.36859 -43.04198,-43.04098 V 189.0093 c 0,-19.05695 12.556495,-35.31642 29.802507,-40.9358 0.342468,-0.11158 0.68676,-0.21901 1.032821,-0.32223 C 47.28839,130.48605 35.387203,105.63328 35.387203,78.050342 c 0,-24.786771 9.614457,-47.366879 25.303266,-64.220315 h 20.5503 c -19.437925,14.711084 -32.02374,38.020717 -32.02374,64.220315 0,28.524838 14.925119,53.614068 37.362882,67.918178 l -3.898782,13.82963 c -0.398661,-0.2303 -0.795482,-0.46344 -1.190438,-0.69939 l -3e-5,1.1e-4 c 0.394837,0.23591 0.791534,0.46901 1.190066,0.69928 h -2.863838 c -16.106829,0 -29.21115,13.10432 -29.21115,29.21115 v 23.94972 c 0,16.10683 13.104321,29.21115 29.21115,29.21115 z M 181.26549,0 H 76.805825 C 70.92943,3.9973151 65.528331,8.6437669 60.700001,13.829826 H 197.37131 C 192.54298,8.6437669 187.14189,3.9973151 181.26549,0 Z M 93.687,180.763 c -9.233,0 -16.718,7.485 -16.718,16.718 0,9.233 7.485,16.718 16.718,16.718 9.233,0 16.718,-7.485 16.718,-16.718 0,-9.233 -7.485,-16.718 -16.718,-16.718 z m 0,7 c 5.358,0 9.718,4.359 9.718,9.718 0,5.358 -4.36,9.718 -9.718,9.718 -5.359,0 -9.718,-4.36 -9.718,-9.718 0,-5.359 4.359,-9.718 9.718,-9.718 z m 68.3887,-7 c -9.233,0 -16.718,7.485 -16.718,16.718 0,9.233 7.485,16.718 16.718,16.718 9.233,0 16.718,-7.485 16.718,-16.718 0,-9.233 -7.485,-16.718 -16.718,-16.718 z m 0,7 c 5.359,0 9.718,4.359 9.718,9.718 0,5.358 -4.359,9.718 -9.718,9.718 -5.358,0 -9.718,-4.36 -9.718,-9.718 0,-5.359 4.36,-9.718 9.718,-9.718 z M 127.8813,58.981 c -7.137,0 -12.923,5.786 -12.923,12.923 0,7.137 5.786,12.923 12.923,12.923 7.137,0 12.923,-5.786 12.923,-12.923 0,-7.137 -5.786,-12.923 -12.923,-12.923 z m 0,4.64 c 4.567,0 8.283,3.716 8.283,8.283 0,4.567 -3.716,8.283 -8.283,8.283 -4.567,0 -8.283,-3.716 -8.283,-8.283 0,-4.567 3.716,-8.283 8.283,-8.283 z m -23.9256,31.6283 c -7.137,0 -12.923,5.786 -12.923,12.923 0,7.138 5.786,12.923 12.923,12.923 7.137,0 12.923,-5.785 12.923,-12.923 0,-7.137 -5.786,-12.923 -12.923,-12.923 z m 0,4.64 c 4.567,0 8.283,3.716 8.283,8.283 0,4.567 -3.716,8.283 -8.283,8.283 -4.567,0 -8.283,-3.716 -8.283,-8.283 0,-4.567 3.716,-8.283 8.283,-8.283 z m 47.8513,-4.64 c -7.137,0 -12.923,5.786 -12.923,12.923 0,7.138 5.786,12.923 12.923,12.923 7.137,0 12.923,-5.785 12.923,-12.923 0,-7.137 -5.786,-12.923 -12.923,-12.923 z m 0,4.64 c 4.567,0 8.283,3.716 8.283,8.283 0,4.567 -3.716,8.283 -8.283,8.283 -4.567,0 -8.283,-3.716 -8.283,-8.283 0,-4.567 3.716,-8.283 8.283,-8.283 z M 80.5139,58.981 c -7.137,0 -12.923,5.786 -12.923,12.923 0,7.137 5.786,12.923 12.923,12.923 7.137,0 12.923,-5.786 12.923,-12.923 0,-7.137 -5.786,-12.923 -12.923,-12.923 z m 0,4.64 c 4.567,0 8.283,3.716 8.283,8.283 0,4.567 -3.716,8.283 -8.283,8.283 -4.568,0 -8.283,-3.716 -8.283,-8.283 0,-4.567 3.715,-8.283 8.283,-8.283 z m 94.7349,-4.64 c -7.137,0 -12.923,5.786 -12.923,12.923 0,7.137 5.786,12.923 12.923,12.923 7.137,0 12.923,-5.786 12.923,-12.923 0,-7.137 -5.786,-12.923 -12.923,-12.923 z m 0,4.64 c 4.568,0 8.283,3.716 8.283,8.283 0,4.567 -3.715,8.283 -8.283,8.283 -4.567,0 -8.283,-3.716 -8.283,-8.283 0,-4.567 3.716,-8.283 8.283,-8.283 z M 105.1377,32.763 c -5.832,0 -10.559,4.728 -10.559,10.559 0,5.832 4.727,10.559 10.559,10.559 5.832,0 10.559,-4.727 10.559,-10.559 0,-5.831 -4.727,-10.559 -10.559,-10.559 z m 0,4.64 c 3.264,0 5.919,2.655 5.919,5.919 0,3.264 -2.655,5.919 -5.919,5.919 -3.264,0 -5.919,-2.655 -5.919,-5.919 0,-3.264 2.655,-5.919 5.919,-5.919 z m 45.4873,-4.64 c -5.832,0 -10.559,4.728 -10.559,10.559 0,5.832 4.727,10.559 10.559,10.559 5.832,0 10.559,-4.727 10.559,-10.559 0,-5.831 -4.727,-10.559 -10.559,-10.559 z m 0,4.64 c 3.264,0 5.919,2.655 5.919,5.919 0,3.264 -2.655,5.919 -5.919,5.919 -3.264,0 -5.919,-2.655 -5.919,-5.919 0,-3.264 2.655,-5.919 5.919,-5.919 z"
         id="Combined-Shape"
         style="fill:#000000"
         inkscape:connector-curvature="0"
         sodipodi:nodetypes="ssssscccccsccsccssssssccsccscccccsssscccccssssssssssssssssssssssssssssssssssssssssssssssssssssssssssssssssssssssssssssssssssssssssss" />
    </g>
  </g>
</svg>
