<?xml version="1.0" encoding="UTF-8" standalone="no"?>
<svg
   xmlns:dc="http://purl.org/dc/elements/1.1/"
   xmlns:cc="http://creativecommons.org/ns#"
   xmlns:rdf="http://www.w3.org/1999/02/22-rdf-syntax-ns#"
   xmlns:svg="http://www.w3.org/2000/svg"
   xmlns="http://www.w3.org/2000/svg"
   xmlns:sodipodi="http://sodipodi.sourceforge.net/DTD/sodipodi-0.dtd"
   xmlns:inkscape="http://www.inkscape.org/namespaces/inkscape"
   width="256px"
   height="256px"
   viewBox="0 0 256 256"
   version="1.1"
   id="svg11"
   sodipodi:docname="type1.svg"
   inkscape:version="0.92.2 5c3e80d, 2017-08-06">
  <metadata
     id="metadata15">
    <rdf:RDF>
      <cc:Work
         rdf:about="">
        <dc:format>image/svg+xml</dc:format>
        <dc:type
           rdf:resource="http://purl.org/dc/dcmitype/StillImage" />
        <dc:title>connector-type.type1.yazaki</dc:title>
      </cc:Work>
    </rdf:RDF>
  </metadata>
  <sodipodi:namedview
     pagecolor="#ffffff"
     bordercolor="#666666"
     borderopacity="1"
     objecttolerance="10"
     gridtolerance="10"
     guidetolerance="10"
     inkscape:pageopacity="0"
     inkscape:pageshadow="2"
     inkscape:window-width="2560"
     inkscape:window-height="1391"
     id="namedview13"
     showgrid="false"
     inkscape:pagecheckerboard="true"
     inkscape:zoom="3.6875"
     inkscape:cx="107.67902"
     inkscape:cy="117.04853"
     inkscape:window-x="0"
     inkscape:window-y="1"
     inkscape:window-maximized="1"
     inkscape:current-layer="svg11" />
  <!-- Generator: Sketch 41.2 (35397) - http://www.bohemiancoding.com/sketch -->
  <title
     id="title2">connector-type.type1.yazaki</title>
  <desc
     id="desc4">Created with Sketch.</desc>
  <defs
     id="defs6" />
  <g
     id="Page-1"
     stroke="none"
     stroke-width="1"
     fill="none"
     fill-rule="evenodd"
     style="fill:#000000">
    <g
       id="connector-type.type1.yazaki"
       fill="#FFFFFF"
       style="fill:#000000">
      <path
         d="M 128.00019,0 C 57.307871,0 1.8823529e-4,57.307683 1.8823529e-4,128 c 0,70.69232 57.30768276471,128 128.00000176471,128 70.69231,0 128,-57.30768 128,-128 0,-70.692317 -57.30769,-128 -128,-128 m -0.005,12.994689 c 30.71733,0 59.59644,11.962153 81.31714,33.682854 21.7207,21.720701 33.68286,50.599811 33.68286,81.317147 0,30.71828 -11.96216,59.59739 -33.68286,81.31714 -21.7207,21.72071 -50.59981,33.68286 -81.31714,33.68286 -30.717338,0 -59.596448,-11.96215 -81.317149,-33.68286 C 24.95703,187.59208 12.994877,158.71297 12.994877,127.99469 12.994877,97.277354 24.95703,68.398244 46.677731,46.677543 68.398432,24.956842 97.277542,12.994689 127.99488,12.994689 Z M 127.5936,156.23313 c -17.93318,0 -32.470588,14.53741 -32.470588,32.47059 0,17.93317 14.537408,32.47059 32.470588,32.47059 17.93318,0 32.47059,-14.53742 32.47059,-32.47059 0,-17.93318 -14.53741,-32.47059 -32.47059,-32.47059 z m 0,7.52941 c 13.75247,0 24.94118,11.18871 24.94118,24.94118 0,13.75247 -11.18871,24.94117 -24.94118,24.94117 -13.75247,0 -24.94118,-11.1887 -24.94118,-24.94117 0,-13.75247 11.18871,-24.94118 24.94118,-24.94118 z M 62.0272,142.76922 c -11.504941,0 -20.832,9.32706 -20.832,20.832 0,11.50494 9.327059,20.83106 20.832,20.83106 11.504941,0 20.832,-9.32612 20.832,-20.83106 0,-11.50494 -9.327059,-20.832 -20.832,-20.832 z m 0,4.83012 c 8.823529,0 16.000941,7.17835 16.000941,16.00188 0,8.82259 -7.177412,16.00095 -16.000941,16.00095 -8.823529,0 -16.000941,-7.17836 -16.000941,-16.00095 0,-8.82353 7.177412,-16.00188 16.000941,-16.00188 z M 193.16,142.76922 c -11.50494,0 -20.832,9.32706 -20.832,20.832 0,11.50494 9.32706,20.83106 20.832,20.83106 11.50494,0 20.832,-9.32612 20.832,-20.83106 0,-11.50494 -9.32706,-20.832 -20.832,-20.832 z m 0,4.83012 c 8.82353,0 16.00094,7.17835 16.00094,16.00188 0,8.82259 -7.17741,16.00095 -16.00094,16.00095 -8.82353,0 -16.00094,-7.17836 -16.00094,-16.00095 0,-8.82353 7.17741,-16.00188 16.00094,-16.00188 z M 83.358306,48.594353 c -17.933177,0 -32.470588,14.537412 -32.470588,32.470588 0,17.933177 14.537411,32.470589 32.470588,32.470589 17.933174,0 32.470584,-14.537412 32.470584,-32.470589 0,-17.933176 -14.53741,-32.470588 -32.470584,-32.470588 z m 0,7.529412 c 13.75247,0 24.941174,11.188706 24.941174,24.941176 0,13.752471 -11.188704,24.941179 -24.941174,24.941179 -13.752471,0 -24.941177,-11.188708 -24.941177,-24.941179 0,-13.75247 11.188706,-24.941176 24.941177,-24.941176 z m 88.470584,-7.529412 c -17.93317,0 -32.47058,14.537412 -32.47058,32.470588 0,17.933177 14.53741,32.470589 32.47058,32.470589 17.93318,0 32.47059,-14.537412 32.47059,-32.470589 0,-17.933176 -14.53741,-32.470588 -32.47059,-32.470588 z m 0,7.529412 c 13.75247,0 24.94118,11.188706 24.94118,24.941176 0,13.752471 -11.18871,24.941179 -24.94118,24.941179 -13.75247,0 -24.94117,-11.188708 -24.94117,-24.941179 0,-13.75247 11.1887,-24.941176 24.94117,-24.941176 z"
         id="Combined-Shape"
         style="fill:#000000"
         inkscape:connector-curvature="0"
         sodipodi:nodetypes="cssscssscscsssssssssssssssssssssssssssssssssssssssssssssssssssss" />
    </g>
  </g>
</svg>
