<?xml version="1.0" encoding="UTF-8" standalone="no"?>
<svg
   xmlns:dc="http://purl.org/dc/elements/1.1/"
   xmlns:cc="http://creativecommons.org/ns#"
   xmlns:rdf="http://www.w3.org/1999/02/22-rdf-syntax-ns#"
   xmlns:svg="http://www.w3.org/2000/svg"
   xmlns="http://www.w3.org/2000/svg"
   xmlns:sodipodi="http://sodipodi.sourceforge.net/DTD/sodipodi-0.dtd"
   xmlns:inkscape="http://www.inkscape.org/namespaces/inkscape"
   width="219.86874mm"
   height="219.86874mm"
   version="1.1"
   id="svg4692"
   sodipodi:docname="icon.svg"
   inkscape:version="0.92.4 (5da689c313, 2019-01-14)">
  <metadata
     id="metadata4698">
    <rdf:RDF>
      <cc:Work
         rdf:about="">
        <dc:format>image/svg+xml</dc:format>
        <dc:type
           rdf:resource="http://purl.org/dc/dcmitype/StillImage" />
        <dc:title />
      </cc:Work>
    </rdf:RDF>
  </metadata>
  <defs
     id="defs4696" />
  <sodipodi:namedview
     pagecolor="#ffffff"
     bordercolor="#666666"
     borderopacity="1"
     objecttolerance="10"
     gridtolerance="10"
     guidetolerance="10"
     inkscape:pageopacity="0"
     inkscape:pageshadow="2"
     inkscape:window-width="2736"
     inkscape:window-height="1699"
     id="namedview4694"
     showgrid="false"
     inkscape:zoom="0.94059375"
     inkscape:cx="726.53913"
     inkscape:cy="264.8455"
     inkscape:window-x="-13"
     inkscape:window-y="-13"
     inkscape:window-maximized="1"
     inkscape:current-layer="svg4692">
    <sodipodi:guide
       position="-174.71987,-505.79861"
       orientation="0,1449.6283"
       id="guide3729"
       inkscape:locked="false" />
    <sodipodi:guide
       position="1151.0385,821.02289"
       orientation="-1448.559,0"
       id="guide3731"
       inkscape:locked="false" />
    <sodipodi:guide
       position="-163.72637,941.95819"
       orientation="0,-1449.6283"
       id="guide3733"
       inkscape:locked="false" />
    <sodipodi:guide
       position="-174.71987,942.76039"
       orientation="1448.559,0"
       id="guide3735"
       inkscape:locked="false" />
  </sodipodi:namedview>
  <path
     style="fill:#000000;stroke-width:1.03499269"
     d="M 281.41493,828.92675 C 260.89344,825.86164 250.9689,823.71559 238.66507,819.68259 182.892,801.40076 132.73267,758.49192 104.8826,705.23819 85.029449,667.27584 78.56148,632.19602 83.673727,590.20922 c 4.792735,-39.36276 17.137613,-68.7211 41.994063,-99.8695 10.5254,-13.18969 21.39394,-24.67325 43.94032,-46.42673 10.95166,-10.56651 20.67555,-20.60281 21.60866,-22.30291 3.99496,-7.2786 2.00799,-10.98377 -12.81144,-23.89006 C 164.69396,385.77873 145.53446,366.37215 133.87619,352.61663 107.08211,321.00247 92.424133,289.96279 84.537021,248.13618 82.146651,235.4597 81.828799,198.1318 84.006633,185.84976 91.978013,140.89469 113.83077,100.44404 147.39226,68.519499 184.59722,33.129228 230.74313,10.95879 284.08063,2.8486809 c 16.16293,-2.45761905 52.83376,-2.46653831 69.30848,-0.01688 43.4786,6.4649909 69.66338,16.4428201 100.23069,38.1933741 23.11102,16.444927 39.87452,30.993878 106.0982,92.082005 47.99143,44.26978 81.72594,75.24797 203.12417,186.5278 48.66727,44.61087 53.54436,49.59591 60.05214,61.38134 6.55683,11.87418 9.10148,21.62473 9.10569,34.89132 0,13.76396 -2.05282,22.09664 -8.48337,34.36252 -4.13944,7.89576 -6.74538,11.12735 -17.83317,22.11422 -14.09853,13.97023 -48.83728,46.2559 -108.95089,101.25735 -21.11239,19.31698 -69.57505,63.83902 -107.6947,98.93783 -76.56565,70.49808 -91.19881,83.817 -106.10447,96.57481 -14.35227,12.2841 -32.50679,25.68788 -42.50741,31.38388 -10.04371,5.72056 -39.05809,18.0852 -47.23207,20.12826 -3.12604,0.78137 -9.77351,2.54905 -14.77212,3.92828 -15.54494,4.28899 -30.35563,5.92487 -57.02123,6.29803 -21.54255,0.30143 -26.40447,0.0624 -39.98564,-1.96613 z"
     id="path3727"
     inkscape:connector-curvature="0" />
</svg>
