<?xml version="1.0" encoding="UTF-8" standalone="no"?>
<svg
   xmlns:dc="http://purl.org/dc/elements/1.1/"
   xmlns:cc="http://creativecommons.org/ns#"
   xmlns:rdf="http://www.w3.org/1999/02/22-rdf-syntax-ns#"
   xmlns:svg="http://www.w3.org/2000/svg"
   xmlns="http://www.w3.org/2000/svg"
   xmlns:sodipodi="http://sodipodi.sourceforge.net/DTD/sodipodi-0.dtd"
   xmlns:inkscape="http://www.inkscape.org/namespaces/inkscape"
   width="256px"
   height="256px"
   viewBox="0 0 256 256"
   version="1.1"
   id="svg11"
   sodipodi:docname="type2.svg"
   inkscape:version="0.92.2 5c3e80d, 2017-08-06">
  <metadata
     id="metadata15">
    <rdf:RDF>
      <cc:Work
         rdf:about="">
        <dc:format>image/svg+xml</dc:format>
        <dc:type
           rdf:resource="http://purl.org/dc/dcmitype/StillImage" />
        <dc:title>connector-type.type2.mennekes</dc:title>
      </cc:Work>
    </rdf:RDF>
  </metadata>
  <sodipodi:namedview
     pagecolor="#000000"
     bordercolor="#666666"
     borderopacity="1"
     objecttolerance="10"
     gridtolerance="10"
     guidetolerance="10"
     inkscape:pageopacity="0"
     inkscape:pageshadow="2"
     inkscape:window-width="1848"
     inkscape:window-height="1140"
     id="namedview13"
     showgrid="false"
     inkscape:pagecheckerboard="true"
     inkscape:zoom="2.56"
     inkscape:cx="177.06478"
     inkscape:cy="215.20309"
     inkscape:window-x="0"
     inkscape:window-y="0"
     inkscape:window-maximized="0"
     inkscape:current-layer="connector-type.type2.mennekes" />
  <!-- Generator: Sketch 41.2 (35397) - http://www.bohemiancoding.com/sketch -->
  <title
     id="title2">connector-type.type2.mennekes</title>
  <desc
     id="desc4">Created with Sketch.</desc>
  <defs
     id="defs6" />
  <g
     id="Page-1"
     stroke-width="1"
     stroke="none"
     fill-rule="evenodd"
     fill="none">
    <g
       id="connector-type.type2.mennekes"
       fill="#FFFFFF">
      <path
         d="m 256,109.27078 c -170.666667,97.81948 -85.33333,48.90974 0,0 z m 0,0 c -0.11977,70.5903 -57.38148,127.7781 -127.99981,127.7781 -70.692319,0 -128.00000176471,-57.30768 -128.00000176471,-128 0,-28.482943 9.30768326471,-54.789564 25.04142576471,-76.053343 h 16.694913 c -18.58232,21.019237 -28.74165,47.75357 -28.74165,76.053343 0,30.71876 11.962705,59.5992 33.68441,81.3209 21.721704,21.72171 50.602148,33.68441 81.320903,33.68441 30.71875,0 59.5992,-11.9627 81.3209,-33.68441 21.7217,-21.7217 33.68441,-50.60214 33.68441,-81.3209 0,-28.299646 -10.15924,-55.033865 -28.74156,-76.05306 l -5.1e-4,-5.12e-4 -5e-5,-5.4e-5 H 41.73681 c 0.848303,-0.959762 1.712499,-1.909017 2.594151,-2.84587 -0.881669,0.93687 -1.745824,1.886117 -2.594623,2.84587 H 25.041425 c 3.385814,-4.575475 7.069987,-8.914907 11.022306,-12.994689 h 19.140328 c -2.339573,1.919169 -4.614911,3.938857 -6.819873,6.056227 2.205436,-2.117372 4.480773,-4.137058 6.820345,-6.056227 H 200.79641 c 0.019,0.01558 0.038,0.03116 0.057,0.04675 -0.0194,-0.01603 -0.0384,-0.03175 -0.0571,-0.04713 h 19.14033 c 3.95224,4.079699 7.63634,8.419979 11.02221,12.99535 C 245.84887,57.96975 255.67014,85.319584 256,109.27078 Z M 127.5936,90.320377 c -12.75953,0 -23.10306,10.343533 -23.10306,23.103053 0,12.75953 10.34353,23.10306 23.10306,23.10306 12.75953,0 23.10306,-10.34353 23.10306,-23.10306 0,-12.75952 -10.34353,-23.103053 -23.10306,-23.103053 z m 0,8.470588 c 8.06871,0 14.63247,6.563765 14.63247,14.632465 0,8.06777 -6.56376,14.63248 -14.63247,14.63248 -8.06871,0 -14.63247,-6.56471 -14.63247,-14.63248 0,-8.0687 6.56376,-14.632465 14.63247,-14.632465 z m 33.62221,52.573645 c -12.75953,0 -23.10306,10.34353 -23.10306,23.10306 0,12.75953 10.34353,23.10306 23.10306,23.10306 12.75953,0 23.10306,-10.34353 23.10306,-23.10306 0,-12.75953 -10.34353,-23.10306 -23.10306,-23.10306 z m 0,8.47059 c 8.06871,0 14.63247,6.56376 14.63247,14.63247 0,8.06776 -6.56376,14.63247 -14.63247,14.63247 -8.0687,0 -14.63247,-6.56471 -14.63247,-14.63247 0,-8.06871 6.56377,-14.63247 14.63247,-14.63247 z m -67.244422,-8.47059 c -12.759529,0 -23.103059,10.34353 -23.103059,23.10306 0,12.75953 10.34353,23.10306 23.103059,23.10306 12.759532,0 23.103062,-10.34353 23.103062,-23.10306 0,-12.75953 -10.34353,-23.10306 -23.103062,-23.10306 z m 0,8.47059 c 8.068702,0 14.632472,6.56376 14.632472,14.63247 0,8.06776 -6.56377,14.63247 -14.632472,14.63247 -8.068706,0 -14.63247,-6.56471 -14.63247,-14.63247 0,-8.06871 6.563764,-14.63247 14.63247,-14.63247 z M 56.428235,90.320377 c -12.759529,0 -23.103059,10.343533 -23.103059,23.103053 0,12.75953 10.34353,23.10306 23.103059,23.10306 12.75953,0 23.103059,-10.34353 23.103059,-23.10306 0,-12.75952 -10.343529,-23.103053 -23.103059,-23.103053 z m 0,8.470588 c 8.068706,0 14.632471,6.563765 14.632471,14.632465 0,8.06777 -6.563765,14.63248 -14.632471,14.63248 -8.068706,0 -14.63247,-6.56471 -14.63247,-14.63248 0,-8.0687 6.563764,-14.632465 14.63247,-14.632465 z M 198.75896,90.320377 c -12.75953,0 -23.10305,10.343533 -23.10305,23.103053 0,12.75953 10.34352,23.10306 23.10305,23.10306 12.75953,0 23.10306,-10.34353 23.10306,-23.10306 0,-12.75952 -10.34353,-23.103053 -23.10306,-23.103053 z m 0,8.470588 c 8.06871,0 14.63247,6.563765 14.63247,14.632465 0,8.06777 -6.56376,14.63248 -14.63247,14.63248 -8.0687,0 -14.63247,-6.56471 -14.63247,-14.63248 0,-8.0687 6.56377,-14.632465 14.63247,-14.632465 z M 87.708988,41.849788 c -8.542117,0 -15.466353,6.924235 -15.466353,15.466353 0,8.541177 6.924236,15.465412 15.466353,15.465412 8.542118,0 15.466352,-6.924235 15.466352,-15.465412 0,-8.542118 -6.924234,-15.466353 -15.466352,-15.466353 z m 0,4.705883 c 5.933177,0 10.760471,4.827294 10.760471,10.76047 0,5.933177 -4.827294,10.75953 -10.760471,10.75953 -5.933176,0 -10.76047,-4.826353 -10.76047,-10.75953 0,-5.933176 4.827294,-10.76047 10.76047,-10.76047 z m 79.769222,-4.705883 c -8.54212,0 -15.46635,6.924235 -15.46635,15.466353 0,8.541177 6.92423,15.465412 15.46635,15.465412 8.54212,0 15.46635,-6.924235 15.46635,-15.465412 0,-8.542118 -6.92423,-15.466353 -15.46635,-15.466353 z m 0,4.705883 c 5.93318,0 10.76047,4.827294 10.76047,10.76047 0,5.933177 -4.82729,10.75953 -10.76047,10.75953 -5.93317,0 -10.76047,-4.826353 -10.76047,-10.75953 0,-5.933176 4.8273,-10.76047 10.76047,-10.76047 z"
         id="Combined-Shape"
         inkscape:connector-curvature="0"
         sodipodi:nodetypes="cccssccssssscccccccccccccccccssssssssssssssssssssssssssssssssssssssssssssssssssssssssssssssssssssss"
         style="fill:#000000" />
    </g>
  </g>
</svg>
