<?xml version="1.0" encoding="UTF-8" standalone="no"?>
<!-- Created with Inkscape (http://www.inkscape.org/) -->

<svg
   width="165.58182mm"
   height="139.1916mm"
   viewBox="0 0 165.58182 139.1916"
   version="1.1"
   id="svg3720"
   inkscape:version="1.1 (c68e22c387, 2021-05-23)"
   sodipodi:docname="icon.svg"
   xmlns:inkscape="http://www.inkscape.org/namespaces/inkscape"
   xmlns:sodipodi="http://sodipodi.sourceforge.net/DTD/sodipodi-0.dtd"
   xmlns="http://www.w3.org/2000/svg"
   xmlns:svg="http://www.w3.org/2000/svg"
   xmlns:rdf="http://www.w3.org/1999/02/22-rdf-syntax-ns#"
   xmlns:cc="http://creativecommons.org/ns#"
   xmlns:dc="http://purl.org/dc/elements/1.1/">
  <defs
     id="defs3714" />
  <sodipodi:namedview
     id="base"
     pagecolor="#ffffff"
     bordercolor="#666666"
     borderopacity="1.0"
     inkscape:pageopacity="0.0"
     inkscape:pageshadow="2"
     inkscape:zoom="1.4"
     inkscape:cx="631.42857"
     inkscape:cy="225.71429"
     inkscape:document-units="mm"
     inkscape:current-layer="layer1"
     showgrid="false"
     inkscape:window-width="2560"
     inkscape:window-height="1378"
     inkscape:window-x="2729"
     inkscape:window-y="-615"
     inkscape:window-maximized="1"
     inkscape:pagecheckerboard="0" />
  <metadata
     id="metadata3717">
    <rdf:RDF>
      <cc:Work
         rdf:about="">
        <dc:format>image/svg+xml</dc:format>
        <dc:type
           rdf:resource="http://purl.org/dc/dcmitype/StillImage" />
      </cc:Work>
    </rdf:RDF>
  </metadata>
  <g
     inkscape:label="Laag 1"
     inkscape:groupmode="layer"
     id="layer1"
     transform="translate(-19.644666,-81.600464)">
    <path
       style="fill:#000000;stroke-width:0.264583"
       id="path2127"
       d="" />
    <path
       style="fill:#000000;stroke-width:0.264583"
       id="path2068"
       d="" />
    <path
       style="fill:#000000;stroke-width:0.264583"
       id="path2009"
       d="" />
    <path
       style="fill:#000000;stroke-width:0.17674"
       d="m 84.729793,220.2502 c -3.594671,-0.51027 -5.333125,-0.86753 -7.488332,-1.53891 -9.769568,-3.04343 -18.555794,-10.18663 -23.434191,-19.05195 -3.477599,-6.31973 -4.61057,-12.1596 -3.715076,-19.14929 0.839519,-6.55285 3.001923,-11.44024 7.355945,-16.62563 1.843692,-2.19573 3.747493,-4.10744 7.696862,-7.72882 1.918363,-1.75904 3.621661,-3.42983 3.78511,-3.71285 0.699786,-1.21169 0.351732,-1.82851 -2.244134,-3.97706 -2.40177,-1.98791 -5.757866,-5.21859 -7.800005,-7.50852 -4.693416,-5.26292 -7.261008,-10.4302 -8.642558,-17.39323 -0.418712,-2.11031 -0.474391,-8.32441 -0.09293,-10.36905 1.396311,-7.48383 5.224188,-14.217827 11.103023,-19.532414 6.517059,-5.891543 14.600265,-9.582334 23.943203,-10.932454 2.831198,-0.409128 9.254694,-0.410613 12.140513,-0.0029 7.615997,1.07625 12.202677,2.737295 17.557037,6.358188 4.04826,2.737646 6.98467,5.159656 18.58484,15.32925 8.40649,7.36976 14.31563,12.5268 35.58052,31.05195 8.52487,7.42653 9.37916,8.25641 10.51911,10.21837 1.14854,1.97673 1.59427,3.59994 1.59502,5.80849 0,2.29134 -0.35959,3.6785 -1.48601,5.72044 -0.72509,1.31445 -1.18157,1.85241 -3.12377,3.68144 -2.46959,2.32566 -8.55464,7.70038 -19.08453,16.85666 -3.69818,3.21577 -12.18721,10.62752 -18.86448,16.47054 -13.41174,11.73606 -15.97498,13.95332 -18.58595,16.07714 -2.51404,2.04499 -5.69409,4.27637 -7.44586,5.22459 -1.75931,0.95233 -6.84166,3.01071 -8.27347,3.35083 -0.54758,0.13008 -1.71199,0.42434 -2.58757,0.65396 -2.722953,0.71399 -5.317286,0.98633 -9.988192,1.04845 -3.773543,0.0501 -4.625182,0.0104 -7.004144,-0.32731 z"
       id="path3727"
       inkscape:connector-curvature="0" />
  </g>
</svg>
