<svg width="400mm" height="400mm" xmlns="http://www.w3.org/2000/svg">


 <g>
  <title>Layer 1</title>
  <path fill-rule="evenodd" fill="#000000" d="m189.6,27.221c-5.068,0.397 -15.631,1.559 -16.47,1.812c-0.368,0.111 -2.618,0.544 -5,0.963c-9.134,1.607 -16.303,3.568 -27.33,7.475c-34.02,12.055 -69.158,40.174 -86.382,69.129c-0.524,0.88 -1.657,2.71 -2.519,4.067c-2.93,4.612 -6.092,10.654 -9.698,18.533c-2.41,5.267 -3.629,8.407 -7.066,18.2c-1.378,3.927 -4.013,14.387 -4.983,19.784c-0.334,1.861 -0.681,3.501 -0.77,3.645c-0.913,1.477 -2.328,19.173 -2.334,29.171c-0.006,10.693 0.125,12.552 1.744,24.8c1.178,8.905 3.337,18.392 6.01,26.4c0.404,1.21 1.28,3.91 1.947,6c1.931,6.047 8.513,21.087 10.531,24.062c0.396,0.584 0.72,1.17 0.72,1.302c0,0.372 5.837,10.028 8.109,13.414c15.967,23.801 38.315,43.959 63.291,57.093c4.192,2.204 14.39,6.91 17,7.844c0.99,0.354 3.06,1.112 4.6,1.683c32.974,12.238 73.599,13.785 105.8,4.029c11.327,-3.431 13.633,-4.262 22,-7.929c45.604,-19.983 80.932,-58.763 95.645,-104.991c2.878,-9.042 4.648,-15.841 5.337,-20.507c0.146,-0.99 0.524,-3.06 0.84,-4.6c4.999,-24.346 2.367,-56.916 -6.805,-84.2c-0.998,-2.97 -1.99,-5.76 -2.204,-6.2c-0.214,-0.44 -0.919,-2.15 -1.567,-3.8c-8.99,-22.886 -26.102,-46.936 -45.563,-64.036c-18.813,-16.531 -40.169,-28.485 -63.883,-35.759c-1.98,-0.607 -4.32,-1.334 -5.2,-1.616c-13.162,-4.211 -40.11,-6.997 -55.8,-5.768m5,68.231c14.988,2.504 21.477,6.705 42.6,27.584c7.81,7.719 16.989,16.719 20.397,20c3.409,3.28 10.159,9.849 15,14.598c4.842,4.748 13.555,13.208 19.364,18.8c6.513,6.27 11.141,11.057 12.075,12.49c4.442,6.814 4.495,14.854 0.142,21.676c-1.294,2.029 -6.958,7.697 -29.979,30c-7.039,6.82 -13.702,13.3 -14.806,14.4c-2.662,2.653 -20.067,19.697 -27.603,27.029c-10.716,10.428 -15.893,14.56 -21.39,17.075c-4.261,1.95 -7.575,3.296 -8.117,3.296c-0.32,0 -1.37,0.288 -2.333,0.64c-4.217,1.542 -15.262,2.496 -20.373,1.76c-1.527,-0.22 -3.997,-0.575 -5.489,-0.789c-25.346,-3.638 -47.035,-30.194 -45.553,-55.776c0.941,-16.25 5.669,-26.015 19.283,-39.835c9.207,-9.346 8.917,-8.083 3.143,-13.644c-13.731,-13.229 -19.38,-22.864 -21.742,-37.087c-6.063,-36.506 27.589,-68.529 65.381,-62.217" id="path0"/>
 </g>
</svg>