<?xml version="1.0" encoding="iso-8859-1"?>
<!-- Generator: Adobe Illustrator 16.0.0, SVG Export Plug-In . SVG Version: 6.00 Build 0)  -->
<!DOCTYPE svg PUBLIC "-//W3C//DTD SVG 1.1//EN" "http://www.w3.org/Graphics/SVG/1.1/DTD/svg11.dtd">
<svg version="1.1" id="Capa_1" xmlns="http://www.w3.org/2000/svg" xmlns:xlink="http://www.w3.org/1999/xlink" x="0px" y="0px"
	 width="521.946px" height="521.946px" viewBox="0 0 521.946 521.946" style="enable-background:new 0 0 521.946 521.946;"
	 xml:space="preserve">
<g>
	<g>
		<path d="M185.805,479.639l2.649-0.144c165.115-66.65,226.688-221.85,153.976-288.5c-72.704-66.66-156.022,21.047-156.022,21.047
			h-0.603c0,0-83.317-87.707-156.021-21.057C-42.93,257.636,20.689,412.988,185.805,479.639z"/>
		<path d="M285.274,108.05c-7.928,0-14.344,6.417-14.344,14.344s6.416,14.344,14.344,14.344
			c70.523,0,127.898,54.162,127.898,120.727c0,7.928,6.416,14.344,14.344,14.344s14.344-6.416,14.344-14.344
			C441.86,175.073,371.614,108.05,285.274,108.05z"/>
		<path d="M493.259,247.901c0,7.928,6.416,14.344,14.344,14.344s14.344-6.416,14.344-14.344
			c0-113.363-106.708-205.594-237.867-205.594c-7.928,0-14.344,6.417-14.344,14.344s6.416,14.344,14.344,14.344
			C399.422,70.995,493.259,150.354,493.259,247.901z"/>
	</g>
</g>
<g>
</g>
<g>
</g>
<g>
</g>
<g>
</g>
<g>
</g>
<g>
</g>
<g>
</g>
<g>
</g>
<g>
</g>
<g>
</g>
<g>
</g>
<g>
</g>
<g>
</g>
<g>
</g>
<g>
</g>
</svg>
