<?xml version="1.0" encoding="UTF-8" standalone="no"?>
<svg
   width="390mm"
   height="390mm"
   version="1.1"
   id="svg12"
   sodipodi:docname="lolo.svg"
   inkscape:version="1.1.1 (3bf5ae0d25, 2021-09-20)"
   xmlns:inkscape="http://www.inkscape.org/namespaces/inkscape"
   xmlns:sodipodi="http://sodipodi.sourceforge.net/DTD/sodipodi-0.dtd"
   xmlns="http://www.w3.org/2000/svg"
   xmlns:svg="http://www.w3.org/2000/svg"
   xmlns:rdf="http://www.w3.org/1999/02/22-rdf-syntax-ns#"
   xmlns:cc="http://creativecommons.org/ns#"
   xmlns:dc="http://purl.org/dc/elements/1.1/">
  <metadata
     id="metadata18">
    <rdf:RDF>
      <cc:Work
         rdf:about="">
        <dc:format>image/svg+xml</dc:format>
        <dc:type
           rdf:resource="http://purl.org/dc/dcmitype/StillImage" />
      </cc:Work>
    </rdf:RDF>
  </metadata>
  <defs
     id="defs16" />
  <sodipodi:namedview
     pagecolor="#ffffff"
     bordercolor="#666666"
     borderopacity="1"
     objecttolerance="10"
     gridtolerance="10"
     guidetolerance="10"
     inkscape:pageopacity="0"
     inkscape:pageshadow="2"
     inkscape:window-width="1440"
     inkscape:window-height="914"
     id="namedview14"
     showgrid="false"
     inkscape:pagecheckerboard="true"
     units="mm"
     inkscape:zoom="0.41799165"
     inkscape:cx="1293.088"
     inkscape:cy="748.81879"
     inkscape:window-x="-6"
     inkscape:window-y="-6"
     inkscape:window-maximized="1"
     inkscape:current-layer="svg12"
     inkscape:document-units="mm"
     height="390mm" />
  <path
     style="fill:#ffffff;fill-rule:evenodd;stroke:#000000;stroke-width:42.9357;stroke-miterlimit:4;stroke-dasharray:none;stroke-opacity:1"
     inkscape:connector-curvature="0"
     id="path1"
     d="M 454.30642,81.766006 C 353.37445,92.164577 276.78401,165.38495 267.9263,259.94047 c -1.64415,17.55189 -0.63915,715.32557 1.04588,725.66173 11.89638,73.0116 63.30602,133.0595 134.97693,157.6571 11.11089,3.8134 22.2433,6.4409 37.55708,8.8641 l 13.88485,2.1972 63.58792,-0.028 c 75.69737,-0.036 87.74008,-0.9232 112.22362,-8.2767 77.27047,-23.2053 129.63135,-82.0888 142.96308,-160.76242 l 2.49421,-14.71555 0.008,-352.99397 0.0107,-352.99396 -2.16063,-12.74857 C 758.45373,156.97055 682.8016,87.933696 588.16216,81.744485 573.88134,80.810507 463.40947,80.827721 454.30642,81.766022"
     sodipodi:nodetypes="ccccccccccccccc" />
  <circle
     style="fill:#000000;stroke:none;stroke-width:0.757338"
     id="path4518"
     cx="244.82146"
     cy="384.17239"
     r="0" />
  <ellipse
     style="fill:#000000;stroke-width:0.757338"
     id="path3844"
     cx="527.93793"
     cy="384.48303"
     rx="146.47755"
     ry="143.20432" />
  <ellipse
     style="fill:#000000;stroke-width:0.169008"
     id="path3844-6"
     cx="652.32111"
     cy="206.9097"
     rx="32.73241"
     ry="31.91411" />
  <path
     style="fill:#ffffff;stroke-width:2.39239"
     d="m 441.00038,1129.05 c -65.81602,-11.9093 -117.98313,-55.2922 -142.22753,-118.2786 l -6.90099,-17.9286 -0.71219,-366.03602 c -0.51605,-265.23025 0.0339,-369.98919 1.99701,-380.39037 12.93176,-68.51734 69.42203,-123.18546 143.364,-138.73963 24.06885,-5.06304 149.3355,-5.08225 173.53935,-0.0266 71.78156,14.99353 126.34796,70.62255 141.08433,143.83177 3.38399,16.81134 3.72134,57.42268 3.10781,374.12865 l -0.68822,355.27026 -5.49733,17.94294 c -19.04911,62.1751 -57.49924,102.3458 -118.28091,123.5737 -15.04192,5.2534 -23.50037,6.324 -63.98493,8.0988 -65.28593,2.8621 -103.43368,2.4199 -124.8004,-1.4463 z M 566.78984,523.51646 C 617.98835,510.83284 661.364,465.74182 672.25171,413.88387 682.26205,366.20492 668.66173,320.09238 634.15102,284.7016 597.5723,247.19007 542.2972,231.95748 490.67012,245.16146 c -42.60751,10.89717 -77.04354,38.83166 -95.92152,77.8115 -10.57644,21.83855 -13.63931,35.92624 -13.52368,62.2022 0.17127,38.91958 13.78369,71.91538 41.02969,99.45385 37.78904,38.19471 90.30095,52.3231 144.53523,38.88745 z M 666.1869,236.60545 c 25.67434,-10.27283 25.81192,-47.97141 0.21723,-59.51302 -30.01412,-13.53447 -60.47038,20.00063 -42.54016,46.84055 5.82545,8.72016 18.74128,16.49268 27.41641,16.49873 2.93396,0.002 9.64189,-1.71977 14.90652,-3.82626 z"
     id="path81" />
</svg>
