<?xml version="1.0" encoding="UTF-8" standalone="no"?>
<svg
   width="390mm"
   height="390mm"
   version="1.1"
   id="svg12"
   sodipodi:docname="lolo.svg"
   inkscape:version="1.1.1 (3bf5ae0d25, 2021-09-20)"
   xmlns:inkscape="http://www.inkscape.org/namespaces/inkscape"
   xmlns:sodipodi="http://sodipodi.sourceforge.net/DTD/sodipodi-0.dtd"
   xmlns="http://www.w3.org/2000/svg"
   xmlns:svg="http://www.w3.org/2000/svg"
   xmlns:rdf="http://www.w3.org/1999/02/22-rdf-syntax-ns#"
   xmlns:cc="http://creativecommons.org/ns#"
   xmlns:dc="http://purl.org/dc/elements/1.1/">
  <metadata
     id="metadata18">
    <rdf:RDF>
      <cc:Work
         rdf:about="">
        <dc:format>image/svg+xml</dc:format>
        <dc:type
           rdf:resource="http://purl.org/dc/dcmitype/StillImage" />
      </cc:Work>
    </rdf:RDF>
  </metadata>
  <defs
     id="defs16" />
  <sodipodi:namedview
     pagecolor="#ffffff"
     bordercolor="#666666"
     borderopacity="1"
     objecttolerance="10"
     gridtolerance="10"
     guidetolerance="10"
     inkscape:pageopacity="0"
     inkscape:pageshadow="2"
     inkscape:window-width="1440"
     inkscape:window-height="890"
     id="namedview14"
     showgrid="false"
     inkscape:pagecheckerboard="true"
     units="mm"
     inkscape:zoom="0.34522221"
     inkscape:cx="-224.49309"
     inkscape:cy="753.13811"
     inkscape:window-x="-6"
     inkscape:window-y="-6"
     inkscape:window-maximized="1"
     inkscape:current-layer="svg12"
     inkscape:document-units="mm"
     height="390mm" />
  <path
     style="fill:none;fill-rule:evenodd;stroke:#000000;stroke-width:56.6929;stroke-miterlimit:4;stroke-dasharray:none;stroke-opacity:1"
     inkscape:connector-curvature="0"
     id="path1"
     d="M 640.53367,35.081533 C 507.26169,48.811948 406.1306,145.49316 394.43475,270.3456 c -2.17096,23.17576 -0.84395,944.5259 1.38099,958.1739 15.70814,96.4056 83.59015,175.6936 178.22544,208.1726 14.67097,5.0353 29.37036,8.5048 49.5909,11.7044 l 18.33374,2.9012 83.96239,-0.037 c 99.95186,-0.048 115.85322,-1.219 148.18164,-10.9286 102.02901,-30.6406 171.16705,-108.3913 188.77055,-212.273 l 3.2933,-19.4306 0.011,-466.09822 0.014,-466.09816 -2.8529,-16.8334 C 1042.1341,134.38267 942.24192,43.225443 817.27867,35.053118 c -18.85659,-1.233237 -164.7252,-1.210505 -176.745,0.02842"
     sodipodi:nodetypes="ccccccccccccccc" />
  <circle
     style="fill:#000000;stroke:none"
     id="path4518"
     cx="363.92679"
     cy="434.38321"
     r="0" />
  <ellipse
     style="fill:#000000"
     id="path3844"
     cx="737.75775"
     cy="434.79333"
     rx="193.41101"
     ry="189.08899" />
  <ellipse
     style="fill:#000000;stroke-width:0.22316"
     id="path3844-6"
     cx="901.995"
     cy="200.32303"
     rx="43.220337"
     ry="42.139839" />
</svg>
